ISO-10303-21;
HEADER;
/* Generated by software containing ST-Developer
 * from STEP Tools, Inc. (www.steptools.com) 
 */

FILE_DESCRIPTION(
/* description */ (''),
/* implementation_level */ '2;1');

FILE_NAME(
/* name */ 'lens-mount.step',
/* time_stamp */ '2026-07-31T14:26:13+08:00',
/* author */ (''),
/* organization */ (''),
/* preprocessor_version */ 'ST-DEVELOPER v20.1',
/* originating_system */ 'Autodesk Translation Framework v15.8.0.0',
/* authorisation */ '');

FILE_SCHEMA (('AUTOMOTIVE_DESIGN { 1 0 10303 214 3 1 1 }'));
ENDSEC;

DATA;
#10=MECHANICAL_DESIGN_GEOMETRIC_PRESENTATION_REPRESENTATION('',(#23,#24,
#25,#26),#1382);
#11=ITEM_DEFINED_TRANSFORMATION($,$,#832,#910);
#12=ITEM_DEFINED_TRANSFORMATION($,$,#832,#911);
#13=(
REPRESENTATION_RELATIONSHIP($,$,#1394,#1393)
REPRESENTATION_RELATIONSHIP_WITH_TRANSFORMATION(#11)
SHAPE_REPRESENTATION_RELATIONSHIP()
);
#14=(
REPRESENTATION_RELATIONSHIP($,$,#1394,#1393)
REPRESENTATION_RELATIONSHIP_WITH_TRANSFORMATION(#12)
SHAPE_REPRESENTATION_RELATIONSHIP()
);
#15=CONTEXT_DEPENDENT_SHAPE_REPRESENTATION(#13,#1391);
#16=CONTEXT_DEPENDENT_SHAPE_REPRESENTATION(#14,#1392);
#17=NEXT_ASSEMBLY_USAGE_OCCURRENCE(
'Hexagon Socket Button Head Screw DIN EN ISO 7380-1 - M2 x 6 Steel 4.6
 Plain v1:1',
'Hexagon Socket Button Head Screw DIN EN ISO 7380-1 - M2 x 6 Steel 4.6
 Plain v1:1',
'Hexagon Socket Button Head Screw DIN EN ISO 7380-1 - M2 x 6 Steel 4.6
 Plain v1:1',#1396,#1397,
'Hexagon Socket Button Head Screw DIN EN ISO 7380-1 - M2 x 6 Steel 4.6
 Plain v1:1');
#18=NEXT_ASSEMBLY_USAGE_OCCURRENCE(
'Hexagon Socket Button Head Screw DIN EN ISO 7380-1 - M2 x 6 Steel 4.6
 Plain v1:2',
'Hexagon Socket Button Head Screw DIN EN ISO 7380-1 - M2 x 6 Steel 4.6
 Plain v1:2',
'Hexagon Socket Button Head Screw DIN EN ISO 7380-1 - M2 x 6 Steel 4.6
 Plain v1:2',#1396,#1397,
'Hexagon Socket Button Head Screw DIN EN ISO 7380-1 - M2 x 6 Steel 4.6
 Plain v1:2');
#19=SHAPE_REPRESENTATION_RELATIONSHIP('SRR','None',#1394,#21);
#20=SHAPE_REPRESENTATION_RELATIONSHIP('SRR','None',#1393,#22);
#21=ADVANCED_BREP_SHAPE_REPRESENTATION('',(#27),#1381);
#22=ADVANCED_BREP_SHAPE_REPRESENTATION('',(#28,#29),#1380);
#23=STYLED_ITEM('',(#1407),#27);
#24=STYLED_ITEM('',(#1408),#28);
#25=STYLED_ITEM('',(#1409),#811);
#26=STYLED_ITEM('',(#1408),#29);
#27=MANIFOLD_SOLID_BREP('Body1',#816);
#28=MANIFOLD_SOLID_BREP('Body1',#817);
#29=MANIFOLD_SOLID_BREP('Body2',#818);
#30=SPHERICAL_SURFACE('',#858,2.04248444422645);
#31=SPHERICAL_SURFACE('',#901,5.);
#32=CYLINDRICAL_SURFACE('',#842,0.96675);
#33=CYLINDRICAL_SURFACE('',#863,6.);
#34=CYLINDRICAL_SURFACE('',#872,7.75);
#35=CYLINDRICAL_SURFACE('',#874,1.);
#36=CYLINDRICAL_SURFACE('',#877,1.);
#37=CYLINDRICAL_SURFACE('',#880,2.);
#38=CYLINDRICAL_SURFACE('',#888,2.);
#39=CYLINDRICAL_SURFACE('',#905,6.);
#40=FACE_BOUND('',#140,.T.);
#41=FACE_BOUND('',#156,.T.);
#42=FACE_BOUND('',#161,.T.);
#43=FACE_BOUND('',#167,.T.);
#44=FACE_BOUND('',#184,.T.);
#45=FACE_BOUND('',#185,.T.);
#46=FACE_BOUND('',#186,.T.);
#47=FACE_BOUND('',#188,.T.);
#48=FACE_BOUND('',#189,.T.);
#49=FACE_BOUND('',#190,.T.);
#50=FACE_BOUND('',#197,.T.);
#51=PLANE('',#840);
#52=PLANE('',#843);
#53=PLANE('',#844);
#54=PLANE('',#845);
#55=PLANE('',#846);
#56=PLANE('',#847);
#57=PLANE('',#848);
#58=PLANE('',#849);
#59=PLANE('',#850);
#60=PLANE('',#851);
#61=PLANE('',#852);
#62=PLANE('',#853);
#63=PLANE('',#854);
#64=PLANE('',#855);
#65=PLANE('',#856);
#66=PLANE('',#865);
#67=PLANE('',#867);
#68=PLANE('',#868);
#69=PLANE('',#869);
#70=PLANE('',#870);
#71=PLANE('',#871);
#72=PLANE('',#883);
#73=PLANE('',#884);
#74=PLANE('',#885);
#75=PLANE('',#886);
#76=PLANE('',#887);
#77=PLANE('',#891);
#78=PLANE('',#892);
#79=PLANE('',#893);
#80=PLANE('',#894);
#81=PLANE('',#895);
#82=PLANE('',#896);
#83=PLANE('',#897);
#84=PLANE('',#903);
#85=PLANE('',#909);
#86=TOROIDAL_SURFACE('',#836,1.16675,0.2);
#87=FACE_OUTER_BOUND('',#137,.T.);
#88=FACE_OUTER_BOUND('',#138,.T.);
#89=FACE_OUTER_BOUND('',#139,.T.);
#90=FACE_OUTER_BOUND('',#141,.T.);
#91=FACE_OUTER_BOUND('',#142,.T.);
#92=FACE_OUTER_BOUND('',#143,.T.);
#93=FACE_OUTER_BOUND('',#144,.T.);
#94=FACE_OUTER_BOUND('',#145,.T.);
#95=FACE_OUTER_BOUND('',#146,.T.);
#96=FACE_OUTER_BOUND('',#147,.T.);
#97=FACE_OUTER_BOUND('',#148,.T.);
#98=FACE_OUTER_BOUND('',#149,.T.);
#99=FACE_OUTER_BOUND('',#150,.T.);
#100=FACE_OUTER_BOUND('',#151,.T.);
#101=FACE_OUTER_BOUND('',#152,.T.);
#102=FACE_OUTER_BOUND('',#153,.T.);
#103=FACE_OUTER_BOUND('',#154,.T.);
#104=FACE_OUTER_BOUND('',#155,.T.);
#105=FACE_OUTER_BOUND('',#157,.T.);
#106=FACE_OUTER_BOUND('',#158,.T.);
#107=FACE_OUTER_BOUND('',#159,.T.);
#108=FACE_OUTER_BOUND('',#160,.T.);
#109=FACE_OUTER_BOUND('',#162,.T.);
#110=FACE_OUTER_BOUND('',#163,.T.);
#111=FACE_OUTER_BOUND('',#164,.T.);
#112=FACE_OUTER_BOUND('',#165,.T.);
#113=FACE_OUTER_BOUND('',#166,.T.);
#114=FACE_OUTER_BOUND('',#168,.T.);
#115=FACE_OUTER_BOUND('',#169,.T.);
#116=FACE_OUTER_BOUND('',#170,.T.);
#117=FACE_OUTER_BOUND('',#171,.T.);
#118=FACE_OUTER_BOUND('',#172,.T.);
#119=FACE_OUTER_BOUND('',#173,.T.);
#120=FACE_OUTER_BOUND('',#174,.T.);
#121=FACE_OUTER_BOUND('',#175,.T.);
#122=FACE_OUTER_BOUND('',#176,.T.);
#123=FACE_OUTER_BOUND('',#177,.T.);
#124=FACE_OUTER_BOUND('',#178,.T.);
#125=FACE_OUTER_BOUND('',#179,.T.);
#126=FACE_OUTER_BOUND('',#180,.T.);
#127=FACE_OUTER_BOUND('',#181,.T.);
#128=FACE_OUTER_BOUND('',#182,.T.);
#129=FACE_OUTER_BOUND('',#183,.T.);
#130=FACE_OUTER_BOUND('',#187,.T.);
#131=FACE_OUTER_BOUND('',#191,.T.);
#132=FACE_OUTER_BOUND('',#192,.T.);
#133=FACE_OUTER_BOUND('',#193,.T.);
#134=FACE_OUTER_BOUND('',#194,.T.);
#135=FACE_OUTER_BOUND('',#195,.T.);
#136=FACE_OUTER_BOUND('',#196,.T.);
#137=EDGE_LOOP('',(#552,#553,#554,#555));
#138=EDGE_LOOP('',(#556,#557,#558,#559));
#139=EDGE_LOOP('',(#560));
#140=EDGE_LOOP('',(#561));
#141=EDGE_LOOP('',(#562,#563,#564,#565));
#142=EDGE_LOOP('',(#566,#567,#568));
#143=EDGE_LOOP('',(#569,#570,#571));
#144=EDGE_LOOP('',(#572,#573,#574));
#145=EDGE_LOOP('',(#575,#576,#577));
#146=EDGE_LOOP('',(#578,#579,#580));
#147=EDGE_LOOP('',(#581,#582,#583));
#148=EDGE_LOOP('',(#584,#585,#586,#587));
#149=EDGE_LOOP('',(#588,#589,#590,#591));
#150=EDGE_LOOP('',(#592,#593,#594,#595));
#151=EDGE_LOOP('',(#596,#597,#598,#599));
#152=EDGE_LOOP('',(#600,#601,#602,#603));
#153=EDGE_LOOP('',(#604,#605,#606,#607));
#154=EDGE_LOOP('',(#608));
#155=EDGE_LOOP('',(#609));
#156=EDGE_LOOP('',(#610,#611,#612,#613,#614,#615));
#157=EDGE_LOOP('',(#616,#617,#618,#619));
#158=EDGE_LOOP('',(#620,#621,#622,#623));
#159=EDGE_LOOP('',(#624,#625,#626,#627));
#160=EDGE_LOOP('',(#628));
#161=EDGE_LOOP('',(#629));
#162=EDGE_LOOP('',(#630,#631,#632,#633));
#163=EDGE_LOOP('',(#634,#635,#636,#637));
#164=EDGE_LOOP('',(#638,#639,#640,#641));
#165=EDGE_LOOP('',(#642,#643,#644,#645));
#166=EDGE_LOOP('',(#646,#647,#648,#649));
#167=EDGE_LOOP('',(#650));
#168=EDGE_LOOP('',(#651,#652,#653,#654));
#169=EDGE_LOOP('',(#655,#656,#657,#658));
#170=EDGE_LOOP('',(#659,#660,#661,#662));
#171=EDGE_LOOP('',(#663,#664,#665,#666));
#172=EDGE_LOOP('',(#667,#668,#669,#670));
#173=EDGE_LOOP('',(#671,#672,#673,#674));
#174=EDGE_LOOP('',(#675,#676,#677,#678));
#175=EDGE_LOOP('',(#679,#680,#681,#682));
#176=EDGE_LOOP('',(#683,#684,#685,#686));
#177=EDGE_LOOP('',(#687,#688,#689,#690));
#178=EDGE_LOOP('',(#691,#692,#693,#694));
#179=EDGE_LOOP('',(#695,#696,#697,#698));
#180=EDGE_LOOP('',(#699,#700,#701,#702));
#181=EDGE_LOOP('',(#703,#704,#705,#706));
#182=EDGE_LOOP('',(#707,#708,#709,#710));
#183=EDGE_LOOP('',(#711,#712,#713,#714,#715,#716,#717,#718,#719,#720,#721,
#722));
#184=EDGE_LOOP('',(#723));
#185=EDGE_LOOP('',(#724));
#186=EDGE_LOOP('',(#725));
#187=EDGE_LOOP('',(#726,#727,#728,#729,#730,#731,#732,#733,#734,#735,#736,
#737));
#188=EDGE_LOOP('',(#738,#739,#740,#741));
#189=EDGE_LOOP('',(#742));
#190=EDGE_LOOP('',(#743));
#191=EDGE_LOOP('',(#744,#745,#746,#747));
#192=EDGE_LOOP('',(#748,#749,#750));
#193=EDGE_LOOP('',(#751));
#194=EDGE_LOOP('',(#752,#753,#754,#755));
#195=EDGE_LOOP('',(#756,#757,#758,#759));
#196=EDGE_LOOP('',(#760));
#197=EDGE_LOOP('',(#761));
#198=LINE('',#1158,#276);
#199=LINE('',#1170,#277);
#200=LINE('',#1174,#278);
#201=LINE('',#1176,#279);
#202=LINE('',#1177,#280);
#203=LINE('',#1180,#281);
#204=LINE('',#1181,#282);
#205=LINE('',#1184,#283);
#206=LINE('',#1185,#284);
#207=LINE('',#1188,#285);
#208=LINE('',#1189,#286);
#209=LINE('',#1192,#287);
#210=LINE('',#1193,#288);
#211=LINE('',#1195,#289);
#212=LINE('',#1199,#290);
#213=LINE('',#1200,#291);
#214=LINE('',#1201,#292);
#215=LINE('',#1204,#293);
#216=LINE('',#1205,#294);
#217=LINE('',#1208,#295);
#218=LINE('',#1209,#296);
#219=LINE('',#1212,#297);
#220=LINE('',#1213,#298);
#221=LINE('',#1216,#299);
#222=LINE('',#1217,#300);
#223=LINE('',#1219,#301);
#224=LINE('',#1230,#302);
#225=LINE('',#1235,#303);
#226=LINE('',#1242,#304);
#227=LINE('',#1244,#305);
#228=LINE('',#1246,#306);
#229=LINE('',#1247,#307);
#230=LINE('',#1250,#308);
#231=LINE('',#1252,#309);
#232=LINE('',#1253,#310);
#233=LINE('',#1256,#311);
#234=LINE('',#1258,#312);
#235=LINE('',#1259,#313);
#236=LINE('',#1261,#314);
#237=LINE('',#1262,#315);
#238=LINE('',#1266,#316);
#239=LINE('',#1272,#317);
#240=LINE('',#1278,#318);
#241=LINE('',#1285,#319);
#242=LINE('',#1288,#320);
#243=LINE('',#1291,#321);
#244=LINE('',#1293,#322);
#245=LINE('',#1294,#323);
#246=LINE('',#1297,#324);
#247=LINE('',#1299,#325);
#248=LINE('',#1300,#326);
#249=LINE('',#1303,#327);
#250=LINE('',#1305,#328);
#251=LINE('',#1306,#329);
#252=LINE('',#1309,#330);
#253=LINE('',#1311,#331);
#254=LINE('',#1312,#332);
#255=LINE('',#1315,#333);
#256=LINE('',#1317,#334);
#257=LINE('',#1318,#335);
#258=LINE('',#1324,#336);
#259=LINE('',#1327,#337);
#260=LINE('',#1329,#338);
#261=LINE('',#1330,#339);
#262=LINE('',#1333,#340);
#263=LINE('',#1335,#341);
#264=LINE('',#1336,#342);
#265=LINE('',#1339,#343);
#266=LINE('',#1341,#344);
#267=LINE('',#1342,#345);
#268=LINE('',#1345,#346);
#269=LINE('',#1347,#347);
#270=LINE('',#1348,#348);
#271=LINE('',#1350,#349);
#272=LINE('',#1351,#350);
#273=LINE('',#1358,#351);
#274=LINE('',#1369,#352);
#275=LINE('',#1373,#353);
#276=VECTOR('',#920,0.88731);
#277=VECTOR('',#937,0.999999999999999);
#278=VECTOR('',#940,10.);
#279=VECTOR('',#941,10.);
#280=VECTOR('',#942,10.);
#281=VECTOR('',#945,10.);
#282=VECTOR('',#946,10.);
#283=VECTOR('',#949,10.);
#284=VECTOR('',#950,10.);
#285=VECTOR('',#953,10.);
#286=VECTOR('',#954,10.);
#287=VECTOR('',#957,10.);
#288=VECTOR('',#958,10.);
#289=VECTOR('',#961,10.);
#290=VECTOR('',#964,10.);
#291=VECTOR('',#965,10.);
#292=VECTOR('',#966,10.);
#293=VECTOR('',#969,10.);
#294=VECTOR('',#970,10.);
#295=VECTOR('',#973,10.);
#296=VECTOR('',#974,10.);
#297=VECTOR('',#977,10.);
#298=VECTOR('',#978,10.);
#299=VECTOR('',#981,10.);
#300=VECTOR('',#982,10.);
#301=VECTOR('',#985,10.);
#302=VECTOR('',#1000,6.15);
#303=VECTOR('',#1007,6.);
#304=VECTOR('',#1014,10.);
#305=VECTOR('',#1015,10.);
#306=VECTOR('',#1016,10.);
#307=VECTOR('',#1017,10.);
#308=VECTOR('',#1020,10.);
#309=VECTOR('',#1021,10.);
#310=VECTOR('',#1022,10.);
#311=VECTOR('',#1025,10.);
#312=VECTOR('',#1026,10.);
#313=VECTOR('',#1027,10.);
#314=VECTOR('',#1030,10.);
#315=VECTOR('',#1031,10.);
#316=VECTOR('',#1036,7.75);
#317=VECTOR('',#1043,1.);
#318=VECTOR('',#1050,1.);
#319=VECTOR('',#1057,10.);
#320=VECTOR('',#1060,10.);
#321=VECTOR('',#1063,10.);
#322=VECTOR('',#1064,10.);
#323=VECTOR('',#1065,10.);
#324=VECTOR('',#1068,10.);
#325=VECTOR('',#1069,10.);
#326=VECTOR('',#1070,10.);
#327=VECTOR('',#1073,10.);
#328=VECTOR('',#1074,10.);
#329=VECTOR('',#1075,10.);
#330=VECTOR('',#1078,10.);
#331=VECTOR('',#1079,10.);
#332=VECTOR('',#1080,10.);
#333=VECTOR('',#1083,10.);
#334=VECTOR('',#1084,10.);
#335=VECTOR('',#1085,10.);
#336=VECTOR('',#1092,10.);
#337=VECTOR('',#1095,10.);
#338=VECTOR('',#1096,10.);
#339=VECTOR('',#1097,10.);
#340=VECTOR('',#1100,10.);
#341=VECTOR('',#1101,10.);
#342=VECTOR('',#1102,10.);
#343=VECTOR('',#1105,10.);
#344=VECTOR('',#1106,10.);
#345=VECTOR('',#1107,10.);
#346=VECTOR('',#1110,10.);
#347=VECTOR('',#1111,10.);
#348=VECTOR('',#1112,10.);
#349=VECTOR('',#1115,10.);
#350=VECTOR('',#1116,10.);
#351=VECTOR('',#1125,1.33695694364567);
#352=VECTOR('',#1140,6.);
#353=VECTOR('',#1145,4.32722716620586);
#354=CIRCLE('',#834,0.96675);
#355=CIRCLE('',#835,0.754619999999998);
#356=CIRCLE('',#837,1.16675);
#357=CIRCLE('',#838,0.2);
#358=CIRCLE('',#839,0.96675);
#359=CIRCLE('',#841,1.9);
#360=CIRCLE('',#857,0.866666645000001);
#361=CIRCLE('',#859,2.04248444422645);
#362=CIRCLE('',#861,6.3);
#363=CIRCLE('',#862,6.);
#364=CIRCLE('',#864,6.);
#365=CIRCLE('',#866,7.75);
#366=CIRCLE('',#873,7.75);
#367=CIRCLE('',#875,1.);
#368=CIRCLE('',#876,1.);
#369=CIRCLE('',#878,1.);
#370=CIRCLE('',#879,1.);
#371=CIRCLE('',#881,2.);
#372=CIRCLE('',#882,2.);
#373=CIRCLE('',#889,2.);
#374=CIRCLE('',#890,2.);
#375=CIRCLE('',#899,1.5);
#376=CIRCLE('',#900,1.17391388729135);
#377=CIRCLE('',#902,5.);
#378=CIRCLE('',#904,6.);
#379=CIRCLE('',#906,6.);
#380=CIRCLE('',#908,2.65445433241173);
#381=VERTEX_POINT('',#1155);
#382=VERTEX_POINT('',#1157);
#383=VERTEX_POINT('',#1161);
#384=VERTEX_POINT('',#1163);
#385=VERTEX_POINT('',#1167);
#386=VERTEX_POINT('',#1172);
#387=VERTEX_POINT('',#1173);
#388=VERTEX_POINT('',#1175);
#389=VERTEX_POINT('',#1179);
#390=VERTEX_POINT('',#1183);
#391=VERTEX_POINT('',#1187);
#392=VERTEX_POINT('',#1191);
#393=VERTEX_POINT('',#1197);
#394=VERTEX_POINT('',#1198);
#395=VERTEX_POINT('',#1203);
#396=VERTEX_POINT('',#1207);
#397=VERTEX_POINT('',#1211);
#398=VERTEX_POINT('',#1215);
#399=VERTEX_POINT('',#1222);
#400=VERTEX_POINT('',#1227);
#401=VERTEX_POINT('',#1229);
#402=VERTEX_POINT('',#1233);
#403=VERTEX_POINT('',#1237);
#404=VERTEX_POINT('',#1240);
#405=VERTEX_POINT('',#1241);
#406=VERTEX_POINT('',#1243);
#407=VERTEX_POINT('',#1245);
#408=VERTEX_POINT('',#1249);
#409=VERTEX_POINT('',#1251);
#410=VERTEX_POINT('',#1255);
#411=VERTEX_POINT('',#1257);
#412=VERTEX_POINT('',#1265);
#413=VERTEX_POINT('',#1269);
#414=VERTEX_POINT('',#1271);
#415=VERTEX_POINT('',#1275);
#416=VERTEX_POINT('',#1277);
#417=VERTEX_POINT('',#1281);
#418=VERTEX_POINT('',#1282);
#419=VERTEX_POINT('',#1284);
#420=VERTEX_POINT('',#1286);
#421=VERTEX_POINT('',#1290);
#422=VERTEX_POINT('',#1292);
#423=VERTEX_POINT('',#1296);
#424=VERTEX_POINT('',#1298);
#425=VERTEX_POINT('',#1302);
#426=VERTEX_POINT('',#1304);
#427=VERTEX_POINT('',#1308);
#428=VERTEX_POINT('',#1310);
#429=VERTEX_POINT('',#1314);
#430=VERTEX_POINT('',#1316);
#431=VERTEX_POINT('',#1320);
#432=VERTEX_POINT('',#1322);
#433=VERTEX_POINT('',#1326);
#434=VERTEX_POINT('',#1328);
#435=VERTEX_POINT('',#1332);
#436=VERTEX_POINT('',#1334);
#437=VERTEX_POINT('',#1338);
#438=VERTEX_POINT('',#1340);
#439=VERTEX_POINT('',#1344);
#440=VERTEX_POINT('',#1346);
#441=VERTEX_POINT('',#1355);
#442=VERTEX_POINT('',#1357);
#443=VERTEX_POINT('',#1361);
#444=VERTEX_POINT('',#1364);
#445=VERTEX_POINT('',#1367);
#446=VERTEX_POINT('',#1371);
#447=EDGE_CURVE('',#381,#381,#354,.T.);
#448=EDGE_CURVE('',#381,#382,#198,.T.);
#449=EDGE_CURVE('',#382,#382,#355,.T.);
#450=EDGE_CURVE('',#383,#383,#356,.T.);
#451=EDGE_CURVE('',#383,#384,#357,.T.);
#452=EDGE_CURVE('',#384,#384,#358,.T.);
#453=EDGE_CURVE('',#385,#385,#359,.T.);
#454=EDGE_CURVE('',#381,#384,#199,.T.);
#455=EDGE_CURVE('',#386,#387,#200,.T.);
#456=EDGE_CURVE('',#388,#386,#201,.T.);
#457=EDGE_CURVE('',#388,#387,#202,.T.);
#458=EDGE_CURVE('',#389,#388,#203,.T.);
#459=EDGE_CURVE('',#389,#387,#204,.T.);
#460=EDGE_CURVE('',#390,#389,#205,.T.);
#461=EDGE_CURVE('',#390,#387,#206,.T.);
#462=EDGE_CURVE('',#391,#390,#207,.T.);
#463=EDGE_CURVE('',#391,#387,#208,.T.);
#464=EDGE_CURVE('',#392,#391,#209,.T.);
#465=EDGE_CURVE('',#392,#387,#210,.T.);
#466=EDGE_CURVE('',#386,#392,#211,.T.);
#467=EDGE_CURVE('',#393,#394,#212,.T.);
#468=EDGE_CURVE('',#393,#388,#213,.T.);
#469=EDGE_CURVE('',#394,#386,#214,.T.);
#470=EDGE_CURVE('',#395,#393,#215,.T.);
#471=EDGE_CURVE('',#395,#389,#216,.T.);
#472=EDGE_CURVE('',#396,#395,#217,.T.);
#473=EDGE_CURVE('',#396,#390,#218,.T.);
#474=EDGE_CURVE('',#397,#396,#219,.T.);
#475=EDGE_CURVE('',#397,#391,#220,.T.);
#476=EDGE_CURVE('',#398,#397,#221,.T.);
#477=EDGE_CURVE('',#398,#392,#222,.T.);
#478=EDGE_CURVE('',#394,#398,#223,.T.);
#479=EDGE_CURVE('',#399,#399,#360,.T.);
#480=EDGE_CURVE('',#399,#385,#361,.T.);
#481=EDGE_CURVE('',#400,#400,#362,.T.);
#482=EDGE_CURVE('',#400,#401,#224,.T.);
#483=EDGE_CURVE('',#401,#401,#363,.T.);
#484=EDGE_CURVE('',#402,#402,#364,.T.);
#485=EDGE_CURVE('',#402,#401,#225,.T.);
#486=EDGE_CURVE('',#403,#403,#365,.T.);
#487=EDGE_CURVE('',#404,#405,#226,.T.);
#488=EDGE_CURVE('',#404,#406,#227,.T.);
#489=EDGE_CURVE('',#406,#407,#228,.T.);
#490=EDGE_CURVE('',#405,#407,#229,.T.);
#491=EDGE_CURVE('',#408,#404,#230,.T.);
#492=EDGE_CURVE('',#408,#409,#231,.T.);
#493=EDGE_CURVE('',#409,#406,#232,.T.);
#494=EDGE_CURVE('',#410,#408,#233,.T.);
#495=EDGE_CURVE('',#410,#411,#234,.T.);
#496=EDGE_CURVE('',#411,#409,#235,.T.);
#497=EDGE_CURVE('',#405,#410,#236,.T.);
#498=EDGE_CURVE('',#407,#411,#237,.T.);
#499=EDGE_CURVE('',#403,#412,#238,.T.);
#500=EDGE_CURVE('',#412,#412,#366,.T.);
#501=EDGE_CURVE('',#413,#413,#367,.T.);
#502=EDGE_CURVE('',#413,#414,#239,.T.);
#503=EDGE_CURVE('',#414,#414,#368,.T.);
#504=EDGE_CURVE('',#415,#415,#369,.T.);
#505=EDGE_CURVE('',#415,#416,#240,.T.);
#506=EDGE_CURVE('',#416,#416,#370,.T.);
#507=EDGE_CURVE('',#417,#418,#371,.T.);
#508=EDGE_CURVE('',#418,#419,#241,.T.);
#509=EDGE_CURVE('',#420,#419,#372,.T.);
#510=EDGE_CURVE('',#417,#420,#242,.T.);
#511=EDGE_CURVE('',#417,#421,#243,.T.);
#512=EDGE_CURVE('',#422,#420,#244,.T.);
#513=EDGE_CURVE('',#421,#422,#245,.T.);
#514=EDGE_CURVE('',#421,#423,#246,.T.);
#515=EDGE_CURVE('',#424,#422,#247,.T.);
#516=EDGE_CURVE('',#423,#424,#248,.T.);
#517=EDGE_CURVE('',#423,#425,#249,.T.);
#518=EDGE_CURVE('',#426,#424,#250,.T.);
#519=EDGE_CURVE('',#425,#426,#251,.T.);
#520=EDGE_CURVE('',#425,#427,#252,.T.);
#521=EDGE_CURVE('',#428,#426,#253,.T.);
#522=EDGE_CURVE('',#427,#428,#254,.T.);
#523=EDGE_CURVE('',#429,#427,#255,.T.);
#524=EDGE_CURVE('',#430,#428,#256,.T.);
#525=EDGE_CURVE('',#429,#430,#257,.T.);
#526=EDGE_CURVE('',#431,#429,#373,.T.);
#527=EDGE_CURVE('',#432,#430,#374,.T.);
#528=EDGE_CURVE('',#431,#432,#258,.T.);
#529=EDGE_CURVE('',#431,#433,#259,.T.);
#530=EDGE_CURVE('',#434,#432,#260,.T.);
#531=EDGE_CURVE('',#433,#434,#261,.T.);
#532=EDGE_CURVE('',#433,#435,#262,.T.);
#533=EDGE_CURVE('',#436,#434,#263,.T.);
#534=EDGE_CURVE('',#435,#436,#264,.T.);
#535=EDGE_CURVE('',#435,#437,#265,.T.);
#536=EDGE_CURVE('',#438,#436,#266,.T.);
#537=EDGE_CURVE('',#437,#438,#267,.T.);
#538=EDGE_CURVE('',#437,#439,#268,.T.);
#539=EDGE_CURVE('',#440,#438,#269,.T.);
#540=EDGE_CURVE('',#439,#440,#270,.T.);
#541=EDGE_CURVE('',#418,#439,#271,.T.);
#542=EDGE_CURVE('',#419,#440,#272,.T.);
#543=EDGE_CURVE('',#441,#441,#375,.T.);
#544=EDGE_CURVE('',#441,#442,#273,.T.);
#545=EDGE_CURVE('',#442,#442,#376,.T.);
#546=EDGE_CURVE('',#443,#442,#377,.T.);
#547=EDGE_CURVE('',#444,#444,#378,.T.);
#548=EDGE_CURVE('',#445,#445,#379,.T.);
#549=EDGE_CURVE('',#445,#444,#274,.T.);
#550=EDGE_CURVE('',#446,#446,#380,.T.);
#551=EDGE_CURVE('',#446,#445,#275,.T.);
#552=ORIENTED_EDGE('',*,*,#447,.F.);
#553=ORIENTED_EDGE('',*,*,#448,.T.);
#554=ORIENTED_EDGE('',*,*,#449,.F.);
#555=ORIENTED_EDGE('',*,*,#448,.F.);
#556=ORIENTED_EDGE('',*,*,#450,.T.);
#557=ORIENTED_EDGE('',*,*,#451,.T.);
#558=ORIENTED_EDGE('',*,*,#452,.T.);
#559=ORIENTED_EDGE('',*,*,#451,.F.);
#560=ORIENTED_EDGE('',*,*,#453,.T.);
#561=ORIENTED_EDGE('',*,*,#450,.F.);
#562=ORIENTED_EDGE('',*,*,#447,.T.);
#563=ORIENTED_EDGE('',*,*,#454,.T.);
#564=ORIENTED_EDGE('',*,*,#452,.F.);
#565=ORIENTED_EDGE('',*,*,#454,.F.);
#566=ORIENTED_EDGE('',*,*,#455,.F.);
#567=ORIENTED_EDGE('',*,*,#456,.F.);
#568=ORIENTED_EDGE('',*,*,#457,.T.);
#569=ORIENTED_EDGE('',*,*,#457,.F.);
#570=ORIENTED_EDGE('',*,*,#458,.F.);
#571=ORIENTED_EDGE('',*,*,#459,.T.);
#572=ORIENTED_EDGE('',*,*,#459,.F.);
#573=ORIENTED_EDGE('',*,*,#460,.F.);
#574=ORIENTED_EDGE('',*,*,#461,.T.);
#575=ORIENTED_EDGE('',*,*,#461,.F.);
#576=ORIENTED_EDGE('',*,*,#462,.F.);
#577=ORIENTED_EDGE('',*,*,#463,.T.);
#578=ORIENTED_EDGE('',*,*,#463,.F.);
#579=ORIENTED_EDGE('',*,*,#464,.F.);
#580=ORIENTED_EDGE('',*,*,#465,.T.);
#581=ORIENTED_EDGE('',*,*,#465,.F.);
#582=ORIENTED_EDGE('',*,*,#466,.F.);
#583=ORIENTED_EDGE('',*,*,#455,.T.);
#584=ORIENTED_EDGE('',*,*,#467,.F.);
#585=ORIENTED_EDGE('',*,*,#468,.T.);
#586=ORIENTED_EDGE('',*,*,#456,.T.);
#587=ORIENTED_EDGE('',*,*,#469,.F.);
#588=ORIENTED_EDGE('',*,*,#470,.F.);
#589=ORIENTED_EDGE('',*,*,#471,.T.);
#590=ORIENTED_EDGE('',*,*,#458,.T.);
#591=ORIENTED_EDGE('',*,*,#468,.F.);
#592=ORIENTED_EDGE('',*,*,#472,.F.);
#593=ORIENTED_EDGE('',*,*,#473,.T.);
#594=ORIENTED_EDGE('',*,*,#460,.T.);
#595=ORIENTED_EDGE('',*,*,#471,.F.);
#596=ORIENTED_EDGE('',*,*,#474,.F.);
#597=ORIENTED_EDGE('',*,*,#475,.T.);
#598=ORIENTED_EDGE('',*,*,#462,.T.);
#599=ORIENTED_EDGE('',*,*,#473,.F.);
#600=ORIENTED_EDGE('',*,*,#476,.F.);
#601=ORIENTED_EDGE('',*,*,#477,.T.);
#602=ORIENTED_EDGE('',*,*,#464,.T.);
#603=ORIENTED_EDGE('',*,*,#475,.F.);
#604=ORIENTED_EDGE('',*,*,#478,.F.);
#605=ORIENTED_EDGE('',*,*,#469,.T.);
#606=ORIENTED_EDGE('',*,*,#466,.T.);
#607=ORIENTED_EDGE('',*,*,#477,.F.);
#608=ORIENTED_EDGE('',*,*,#449,.T.);
#609=ORIENTED_EDGE('',*,*,#479,.F.);
#610=ORIENTED_EDGE('',*,*,#467,.T.);
#611=ORIENTED_EDGE('',*,*,#478,.T.);
#612=ORIENTED_EDGE('',*,*,#476,.T.);
#613=ORIENTED_EDGE('',*,*,#474,.T.);
#614=ORIENTED_EDGE('',*,*,#472,.T.);
#615=ORIENTED_EDGE('',*,*,#470,.T.);
#616=ORIENTED_EDGE('',*,*,#479,.T.);
#617=ORIENTED_EDGE('',*,*,#480,.T.);
#618=ORIENTED_EDGE('',*,*,#453,.F.);
#619=ORIENTED_EDGE('',*,*,#480,.F.);
#620=ORIENTED_EDGE('',*,*,#481,.T.);
#621=ORIENTED_EDGE('',*,*,#482,.T.);
#622=ORIENTED_EDGE('',*,*,#483,.T.);
#623=ORIENTED_EDGE('',*,*,#482,.F.);
#624=ORIENTED_EDGE('',*,*,#484,.F.);
#625=ORIENTED_EDGE('',*,*,#485,.T.);
#626=ORIENTED_EDGE('',*,*,#483,.F.);
#627=ORIENTED_EDGE('',*,*,#485,.F.);
#628=ORIENTED_EDGE('',*,*,#486,.T.);
#629=ORIENTED_EDGE('',*,*,#481,.F.);
#630=ORIENTED_EDGE('',*,*,#487,.F.);
#631=ORIENTED_EDGE('',*,*,#488,.T.);
#632=ORIENTED_EDGE('',*,*,#489,.T.);
#633=ORIENTED_EDGE('',*,*,#490,.F.);
#634=ORIENTED_EDGE('',*,*,#491,.F.);
#635=ORIENTED_EDGE('',*,*,#492,.T.);
#636=ORIENTED_EDGE('',*,*,#493,.T.);
#637=ORIENTED_EDGE('',*,*,#488,.F.);
#638=ORIENTED_EDGE('',*,*,#494,.F.);
#639=ORIENTED_EDGE('',*,*,#495,.T.);
#640=ORIENTED_EDGE('',*,*,#496,.T.);
#641=ORIENTED_EDGE('',*,*,#492,.F.);
#642=ORIENTED_EDGE('',*,*,#497,.F.);
#643=ORIENTED_EDGE('',*,*,#490,.T.);
#644=ORIENTED_EDGE('',*,*,#498,.T.);
#645=ORIENTED_EDGE('',*,*,#495,.F.);
#646=ORIENTED_EDGE('',*,*,#498,.F.);
#647=ORIENTED_EDGE('',*,*,#489,.F.);
#648=ORIENTED_EDGE('',*,*,#493,.F.);
#649=ORIENTED_EDGE('',*,*,#496,.F.);
#650=ORIENTED_EDGE('',*,*,#484,.T.);
#651=ORIENTED_EDGE('',*,*,#486,.F.);
#652=ORIENTED_EDGE('',*,*,#499,.T.);
#653=ORIENTED_EDGE('',*,*,#500,.F.);
#654=ORIENTED_EDGE('',*,*,#499,.F.);
#655=ORIENTED_EDGE('',*,*,#501,.F.);
#656=ORIENTED_EDGE('',*,*,#502,.T.);
#657=ORIENTED_EDGE('',*,*,#503,.T.);
#658=ORIENTED_EDGE('',*,*,#502,.F.);
#659=ORIENTED_EDGE('',*,*,#504,.F.);
#660=ORIENTED_EDGE('',*,*,#505,.T.);
#661=ORIENTED_EDGE('',*,*,#506,.T.);
#662=ORIENTED_EDGE('',*,*,#505,.F.);
#663=ORIENTED_EDGE('',*,*,#507,.T.);
#664=ORIENTED_EDGE('',*,*,#508,.T.);
#665=ORIENTED_EDGE('',*,*,#509,.F.);
#666=ORIENTED_EDGE('',*,*,#510,.F.);
#667=ORIENTED_EDGE('',*,*,#511,.F.);
#668=ORIENTED_EDGE('',*,*,#510,.T.);
#669=ORIENTED_EDGE('',*,*,#512,.F.);
#670=ORIENTED_EDGE('',*,*,#513,.F.);
#671=ORIENTED_EDGE('',*,*,#514,.F.);
#672=ORIENTED_EDGE('',*,*,#513,.T.);
#673=ORIENTED_EDGE('',*,*,#515,.F.);
#674=ORIENTED_EDGE('',*,*,#516,.F.);
#675=ORIENTED_EDGE('',*,*,#517,.F.);
#676=ORIENTED_EDGE('',*,*,#516,.T.);
#677=ORIENTED_EDGE('',*,*,#518,.F.);
#678=ORIENTED_EDGE('',*,*,#519,.F.);
#679=ORIENTED_EDGE('',*,*,#520,.F.);
#680=ORIENTED_EDGE('',*,*,#519,.T.);
#681=ORIENTED_EDGE('',*,*,#521,.F.);
#682=ORIENTED_EDGE('',*,*,#522,.F.);
#683=ORIENTED_EDGE('',*,*,#523,.T.);
#684=ORIENTED_EDGE('',*,*,#522,.T.);
#685=ORIENTED_EDGE('',*,*,#524,.F.);
#686=ORIENTED_EDGE('',*,*,#525,.F.);
#687=ORIENTED_EDGE('',*,*,#526,.T.);
#688=ORIENTED_EDGE('',*,*,#525,.T.);
#689=ORIENTED_EDGE('',*,*,#527,.F.);
#690=ORIENTED_EDGE('',*,*,#528,.F.);
#691=ORIENTED_EDGE('',*,*,#529,.F.);
#692=ORIENTED_EDGE('',*,*,#528,.T.);
#693=ORIENTED_EDGE('',*,*,#530,.F.);
#694=ORIENTED_EDGE('',*,*,#531,.F.);
#695=ORIENTED_EDGE('',*,*,#532,.F.);
#696=ORIENTED_EDGE('',*,*,#531,.T.);
#697=ORIENTED_EDGE('',*,*,#533,.F.);
#698=ORIENTED_EDGE('',*,*,#534,.F.);
#699=ORIENTED_EDGE('',*,*,#535,.F.);
#700=ORIENTED_EDGE('',*,*,#534,.T.);
#701=ORIENTED_EDGE('',*,*,#536,.F.);
#702=ORIENTED_EDGE('',*,*,#537,.F.);
#703=ORIENTED_EDGE('',*,*,#538,.F.);
#704=ORIENTED_EDGE('',*,*,#537,.T.);
#705=ORIENTED_EDGE('',*,*,#539,.F.);
#706=ORIENTED_EDGE('',*,*,#540,.F.);
#707=ORIENTED_EDGE('',*,*,#541,.T.);
#708=ORIENTED_EDGE('',*,*,#540,.T.);
#709=ORIENTED_EDGE('',*,*,#542,.F.);
#710=ORIENTED_EDGE('',*,*,#508,.F.);
#711=ORIENTED_EDGE('',*,*,#542,.T.);
#712=ORIENTED_EDGE('',*,*,#539,.T.);
#713=ORIENTED_EDGE('',*,*,#536,.T.);
#714=ORIENTED_EDGE('',*,*,#533,.T.);
#715=ORIENTED_EDGE('',*,*,#530,.T.);
#716=ORIENTED_EDGE('',*,*,#527,.T.);
#717=ORIENTED_EDGE('',*,*,#524,.T.);
#718=ORIENTED_EDGE('',*,*,#521,.T.);
#719=ORIENTED_EDGE('',*,*,#518,.T.);
#720=ORIENTED_EDGE('',*,*,#515,.T.);
#721=ORIENTED_EDGE('',*,*,#512,.T.);
#722=ORIENTED_EDGE('',*,*,#509,.T.);
#723=ORIENTED_EDGE('',*,*,#500,.T.);
#724=ORIENTED_EDGE('',*,*,#504,.T.);
#725=ORIENTED_EDGE('',*,*,#501,.T.);
#726=ORIENTED_EDGE('',*,*,#541,.F.);
#727=ORIENTED_EDGE('',*,*,#507,.F.);
#728=ORIENTED_EDGE('',*,*,#511,.T.);
#729=ORIENTED_EDGE('',*,*,#514,.T.);
#730=ORIENTED_EDGE('',*,*,#517,.T.);
#731=ORIENTED_EDGE('',*,*,#520,.T.);
#732=ORIENTED_EDGE('',*,*,#523,.F.);
#733=ORIENTED_EDGE('',*,*,#526,.F.);
#734=ORIENTED_EDGE('',*,*,#529,.T.);
#735=ORIENTED_EDGE('',*,*,#532,.T.);
#736=ORIENTED_EDGE('',*,*,#535,.T.);
#737=ORIENTED_EDGE('',*,*,#538,.T.);
#738=ORIENTED_EDGE('',*,*,#487,.T.);
#739=ORIENTED_EDGE('',*,*,#497,.T.);
#740=ORIENTED_EDGE('',*,*,#494,.T.);
#741=ORIENTED_EDGE('',*,*,#491,.T.);
#742=ORIENTED_EDGE('',*,*,#506,.F.);
#743=ORIENTED_EDGE('',*,*,#503,.F.);
#744=ORIENTED_EDGE('',*,*,#543,.T.);
#745=ORIENTED_EDGE('',*,*,#544,.T.);
#746=ORIENTED_EDGE('',*,*,#545,.F.);
#747=ORIENTED_EDGE('',*,*,#544,.F.);
#748=ORIENTED_EDGE('',*,*,#545,.T.);
#749=ORIENTED_EDGE('',*,*,#546,.F.);
#750=ORIENTED_EDGE('',*,*,#546,.T.);
#751=ORIENTED_EDGE('',*,*,#547,.F.);
#752=ORIENTED_EDGE('',*,*,#548,.F.);
#753=ORIENTED_EDGE('',*,*,#549,.T.);
#754=ORIENTED_EDGE('',*,*,#547,.T.);
#755=ORIENTED_EDGE('',*,*,#549,.F.);
#756=ORIENTED_EDGE('',*,*,#550,.F.);
#757=ORIENTED_EDGE('',*,*,#551,.T.);
#758=ORIENTED_EDGE('',*,*,#548,.T.);
#759=ORIENTED_EDGE('',*,*,#551,.F.);
#760=ORIENTED_EDGE('',*,*,#550,.T.);
#761=ORIENTED_EDGE('',*,*,#543,.F.);
#762=CONICAL_SURFACE('',#833,0.88731,0.824535502685795);
#763=CONICAL_SURFACE('',#860,6.15,0.785398163397448);
#764=CONICAL_SURFACE('',#898,1.33695694364567,1.16587994033272);
#765=CONICAL_SURFACE('',#907,4.32722716620586,0.654498469497877);
#766=ADVANCED_FACE('',(#87),#762,.T.);
#767=ADVANCED_FACE('',(#88),#86,.F.);
#768=ADVANCED_FACE('',(#89,#40),#51,.T.);
#769=ADVANCED_FACE('',(#90),#32,.T.);
#770=ADVANCED_FACE('',(#91),#52,.F.);
#771=ADVANCED_FACE('',(#92),#53,.F.);
#772=ADVANCED_FACE('',(#93),#54,.F.);
#773=ADVANCED_FACE('',(#94),#55,.F.);
#774=ADVANCED_FACE('',(#95),#56,.F.);
#775=ADVANCED_FACE('',(#96),#57,.F.);
#776=ADVANCED_FACE('',(#97),#58,.F.);
#777=ADVANCED_FACE('',(#98),#59,.F.);
#778=ADVANCED_FACE('',(#99),#60,.F.);
#779=ADVANCED_FACE('',(#100),#61,.F.);
#780=ADVANCED_FACE('',(#101),#62,.F.);
#781=ADVANCED_FACE('',(#102),#63,.F.);
#782=ADVANCED_FACE('',(#103),#64,.T.);
#783=ADVANCED_FACE('',(#104,#41),#65,.T.);
#784=ADVANCED_FACE('',(#105),#30,.T.);
#785=ADVANCED_FACE('',(#106),#763,.F.);
#786=ADVANCED_FACE('',(#107),#33,.F.);
#787=ADVANCED_FACE('',(#108,#42),#66,.T.);
#788=ADVANCED_FACE('',(#109),#67,.F.);
#789=ADVANCED_FACE('',(#110),#68,.F.);
#790=ADVANCED_FACE('',(#111),#69,.F.);
#791=ADVANCED_FACE('',(#112),#70,.F.);
#792=ADVANCED_FACE('',(#113,#43),#71,.F.);
#793=ADVANCED_FACE('',(#114),#34,.T.);
#794=ADVANCED_FACE('',(#115),#35,.F.);
#795=ADVANCED_FACE('',(#116),#36,.F.);
#796=ADVANCED_FACE('',(#117),#37,.T.);
#797=ADVANCED_FACE('',(#118),#72,.T.);
#798=ADVANCED_FACE('',(#119),#73,.T.);
#799=ADVANCED_FACE('',(#120),#74,.T.);
#800=ADVANCED_FACE('',(#121),#75,.T.);
#801=ADVANCED_FACE('',(#122),#76,.T.);
#802=ADVANCED_FACE('',(#123),#38,.T.);
#803=ADVANCED_FACE('',(#124),#77,.T.);
#804=ADVANCED_FACE('',(#125),#78,.T.);
#805=ADVANCED_FACE('',(#126),#79,.T.);
#806=ADVANCED_FACE('',(#127),#80,.T.);
#807=ADVANCED_FACE('',(#128),#81,.T.);
#808=ADVANCED_FACE('',(#129,#44,#45,#46),#82,.T.);
#809=ADVANCED_FACE('',(#130,#47,#48,#49),#83,.F.);
#810=ADVANCED_FACE('',(#131),#764,.F.);
#811=ADVANCED_FACE('',(#132),#31,.T.);
#812=ADVANCED_FACE('',(#133),#84,.T.);
#813=ADVANCED_FACE('',(#134),#39,.T.);
#814=ADVANCED_FACE('',(#135),#765,.T.);
#815=ADVANCED_FACE('',(#136,#50),#85,.T.);
#816=CLOSED_SHELL('',(#766,#767,#768,#769,#770,#771,#772,#773,#774,#775,
#776,#777,#778,#779,#780,#781,#782,#783,#784));
#817=CLOSED_SHELL('',(#785,#786,#787,#788,#789,#790,#791,#792,#793,#794,
#795,#796,#797,#798,#799,#800,#801,#802,#803,#804,#805,#806,#807,#808,#809));
#818=CLOSED_SHELL('',(#810,#811,#812,#813,#814,#815));
#819=DERIVED_UNIT_ELEMENT(#821,1.);
#820=DERIVED_UNIT_ELEMENT(#1384,-3.);
#821=(
MASS_UNIT()
NAMED_UNIT(*)
SI_UNIT(.KILO.,.GRAM.)
);
#822=DERIVED_UNIT((#819,#820));
#823=MEASURE_REPRESENTATION_ITEM('density measure',
POSITIVE_RATIO_MEASURE(7750.),#822);
#824=PROPERTY_DEFINITION_REPRESENTATION(#829,#826);
#825=PROPERTY_DEFINITION_REPRESENTATION(#830,#827);
#826=REPRESENTATION('material name',(#828),#1381);
#827=REPRESENTATION('density',(#823),#1381);
#828=DESCRIPTIVE_REPRESENTATION_ITEM('Steel 4.6, Plain',
'Steel 4.6, Plain');
#829=PROPERTY_DEFINITION('material property','material name',#1397);
#830=PROPERTY_DEFINITION('material property','density of part',#1397);
#831=AXIS2_PLACEMENT_3D('',#1152,#912,#913);
#832=AXIS2_PLACEMENT_3D('',#1153,#914,#915);
#833=AXIS2_PLACEMENT_3D('',#1154,#916,#917);
#834=AXIS2_PLACEMENT_3D('',#1156,#918,#919);
#835=AXIS2_PLACEMENT_3D('',#1159,#921,#922);
#836=AXIS2_PLACEMENT_3D('',#1160,#923,#924);
#837=AXIS2_PLACEMENT_3D('',#1162,#925,#926);
#838=AXIS2_PLACEMENT_3D('',#1164,#927,#928);
#839=AXIS2_PLACEMENT_3D('',#1165,#929,#930);
#840=AXIS2_PLACEMENT_3D('',#1166,#931,#932);
#841=AXIS2_PLACEMENT_3D('',#1168,#933,#934);
#842=AXIS2_PLACEMENT_3D('',#1169,#935,#936);
#843=AXIS2_PLACEMENT_3D('',#1171,#938,#939);
#844=AXIS2_PLACEMENT_3D('',#1178,#943,#944);
#845=AXIS2_PLACEMENT_3D('',#1182,#947,#948);
#846=AXIS2_PLACEMENT_3D('',#1186,#951,#952);
#847=AXIS2_PLACEMENT_3D('',#1190,#955,#956);
#848=AXIS2_PLACEMENT_3D('',#1194,#959,#960);
#849=AXIS2_PLACEMENT_3D('',#1196,#962,#963);
#850=AXIS2_PLACEMENT_3D('',#1202,#967,#968);
#851=AXIS2_PLACEMENT_3D('',#1206,#971,#972);
#852=AXIS2_PLACEMENT_3D('',#1210,#975,#976);
#853=AXIS2_PLACEMENT_3D('',#1214,#979,#980);
#854=AXIS2_PLACEMENT_3D('',#1218,#983,#984);
#855=AXIS2_PLACEMENT_3D('',#1220,#986,#987);
#856=AXIS2_PLACEMENT_3D('',#1221,#988,#989);
#857=AXIS2_PLACEMENT_3D('',#1223,#990,#991);
#858=AXIS2_PLACEMENT_3D('',#1224,#992,#993);
#859=AXIS2_PLACEMENT_3D('',#1225,#994,#995);
#860=AXIS2_PLACEMENT_3D('',#1226,#996,#997);
#861=AXIS2_PLACEMENT_3D('',#1228,#998,#999);
#862=AXIS2_PLACEMENT_3D('',#1231,#1001,#1002);
#863=AXIS2_PLACEMENT_3D('',#1232,#1003,#1004);
#864=AXIS2_PLACEMENT_3D('',#1234,#1005,#1006);
#865=AXIS2_PLACEMENT_3D('',#1236,#1008,#1009);
#866=AXIS2_PLACEMENT_3D('',#1238,#1010,#1011);
#867=AXIS2_PLACEMENT_3D('',#1239,#1012,#1013);
#868=AXIS2_PLACEMENT_3D('',#1248,#1018,#1019);
#869=AXIS2_PLACEMENT_3D('',#1254,#1023,#1024);
#870=AXIS2_PLACEMENT_3D('',#1260,#1028,#1029);
#871=AXIS2_PLACEMENT_3D('',#1263,#1032,#1033);
#872=AXIS2_PLACEMENT_3D('',#1264,#1034,#1035);
#873=AXIS2_PLACEMENT_3D('',#1267,#1037,#1038);
#874=AXIS2_PLACEMENT_3D('',#1268,#1039,#1040);
#875=AXIS2_PLACEMENT_3D('',#1270,#1041,#1042);
#876=AXIS2_PLACEMENT_3D('',#1273,#1044,#1045);
#877=AXIS2_PLACEMENT_3D('',#1274,#1046,#1047);
#878=AXIS2_PLACEMENT_3D('',#1276,#1048,#1049);
#879=AXIS2_PLACEMENT_3D('',#1279,#1051,#1052);
#880=AXIS2_PLACEMENT_3D('',#1280,#1053,#1054);
#881=AXIS2_PLACEMENT_3D('',#1283,#1055,#1056);
#882=AXIS2_PLACEMENT_3D('',#1287,#1058,#1059);
#883=AXIS2_PLACEMENT_3D('',#1289,#1061,#1062);
#884=AXIS2_PLACEMENT_3D('',#1295,#1066,#1067);
#885=AXIS2_PLACEMENT_3D('',#1301,#1071,#1072);
#886=AXIS2_PLACEMENT_3D('',#1307,#1076,#1077);
#887=AXIS2_PLACEMENT_3D('',#1313,#1081,#1082);
#888=AXIS2_PLACEMENT_3D('',#1319,#1086,#1087);
#889=AXIS2_PLACEMENT_3D('',#1321,#1088,#1089);
#890=AXIS2_PLACEMENT_3D('',#1323,#1090,#1091);
#891=AXIS2_PLACEMENT_3D('',#1325,#1093,#1094);
#892=AXIS2_PLACEMENT_3D('',#1331,#1098,#1099);
#893=AXIS2_PLACEMENT_3D('',#1337,#1103,#1104);
#894=AXIS2_PLACEMENT_3D('',#1343,#1108,#1109);
#895=AXIS2_PLACEMENT_3D('',#1349,#1113,#1114);
#896=AXIS2_PLACEMENT_3D('',#1352,#1117,#1118);
#897=AXIS2_PLACEMENT_3D('',#1353,#1119,#1120);
#898=AXIS2_PLACEMENT_3D('',#1354,#1121,#1122);
#899=AXIS2_PLACEMENT_3D('',#1356,#1123,#1124);
#900=AXIS2_PLACEMENT_3D('',#1359,#1126,#1127);
#901=AXIS2_PLACEMENT_3D('',#1360,#1128,#1129);
#902=AXIS2_PLACEMENT_3D('',#1362,#1130,#1131);
#903=AXIS2_PLACEMENT_3D('',#1363,#1132,#1133);
#904=AXIS2_PLACEMENT_3D('',#1365,#1134,#1135);
#905=AXIS2_PLACEMENT_3D('',#1366,#1136,#1137);
#906=AXIS2_PLACEMENT_3D('',#1368,#1138,#1139);
#907=AXIS2_PLACEMENT_3D('',#1370,#1141,#1142);
#908=AXIS2_PLACEMENT_3D('',#1372,#1143,#1144);
#909=AXIS2_PLACEMENT_3D('',#1374,#1146,#1147);
#910=AXIS2_PLACEMENT_3D('',#1375,#1148,#1149);
#911=AXIS2_PLACEMENT_3D('',#1376,#1150,#1151);
#912=DIRECTION('axis',(0.,0.,1.));
#913=DIRECTION('refdir',(1.,0.,0.));
#914=DIRECTION('axis',(0.,0.,1.));
#915=DIRECTION('refdir',(1.,0.,0.));
#916=DIRECTION('center_axis',(2.75333173930341E-16,0.,1.));
#917=DIRECTION('ref_axis',(-1.,0.,0.));
#918=DIRECTION('center_axis',(2.75333173930341E-16,0.,1.));
#919=DIRECTION('ref_axis',(-1.,0.,0.));
#920=DIRECTION('',(-0.734232515127657,8.99175499480995E-17,-0.678898087881617));
#921=DIRECTION('center_axis',(-2.75333173930341E-16,0.,-1.));
#922=DIRECTION('ref_axis',(-1.,0.,0.));
#923=DIRECTION('center_axis',(-2.75333173930341E-16,0.,-1.));
#924=DIRECTION('ref_axis',(-1.,0.,2.84308072887364E-16));
#925=DIRECTION('center_axis',(-2.75333173930341E-16,0.,-1.));
#926=DIRECTION('ref_axis',(-1.,0.,2.75333173930341E-16));
#927=DIRECTION('center_axis',(-1.22464679914735E-16,-1.,3.37185890152874E-32));
#928=DIRECTION('ref_axis',(1.,-1.22464679914735E-16,-2.79231143014375E-16));
#929=DIRECTION('center_axis',(2.75333173930341E-16,0.,1.));
#930=DIRECTION('ref_axis',(-1.,0.,2.87101894136322E-16));
#931=DIRECTION('center_axis',(-2.75333173930341E-16,0.,-1.));
#932=DIRECTION('ref_axis',(-1.,0.,2.75333173930341E-16));
#933=DIRECTION('center_axis',(-2.75333173930341E-16,0.,-1.));
#934=DIRECTION('ref_axis',(1.,0.,-2.75333173930341E-16));
#935=DIRECTION('center_axis',(-2.75333173930341E-16,0.,-1.));
#936=DIRECTION('ref_axis',(-1.,0.,0.));
#937=DIRECTION('',(2.75333173930341E-16,0.,1.));
#938=DIRECTION('center_axis',(0.0435778713738291,-0.0754790873051733,-0.996194698091746));
#939=DIRECTION('ref_axis',(-0.866025403784439,-0.5,0.));
#940=DIRECTION('',(0.,0.997141949694316,-0.0755508581011305));
#941=DIRECTION('',(-0.866025403784439,-0.5,0.));
#942=DIRECTION('',(-0.863550259614423,0.498570974847158,-0.0755508581011305));
#943=DIRECTION('center_axis',(0.0871557427476581,1.57122417560365E-17,-0.996194698091746));
#944=DIRECTION('ref_axis',(1.80277756355403E-16,-1.,0.));
#945=DIRECTION('',(1.80277756355403E-16,-1.,0.));
#946=DIRECTION('',(-0.863550259614423,-0.498570974847158,-0.0755508581011305));
#947=DIRECTION('center_axis',(0.0435778713738291,0.0754790873051733,-0.996194698091746));
#948=DIRECTION('ref_axis',(0.866025403784439,-0.5,0.));
#949=DIRECTION('',(0.866025403784439,-0.5,0.));
#950=DIRECTION('',(-1.59381164582915E-16,-0.997141949694316,-0.0755508581011305));
#951=DIRECTION('center_axis',(-0.0435778713738291,0.0754790873051733,-0.996194698091746));
#952=DIRECTION('ref_axis',(0.866025403784439,0.5,0.));
#953=DIRECTION('',(0.866025403784439,0.5,0.));
#954=DIRECTION('',(0.863550259614423,-0.498570974847158,-0.0755508581011305));
#955=DIRECTION('center_axis',(-0.0871557427476581,3.1424483512073E-17,-0.996194698091746));
#956=DIRECTION('ref_axis',(3.60555512710806E-16,1.,0.));
#957=DIRECTION('',(3.60555512710806E-16,1.,0.));
#958=DIRECTION('',(0.863550259614423,0.498570974847158,-0.0755508581011305));
#959=DIRECTION('center_axis',(-0.0435778713738291,-0.0754790873051733,-0.996194698091746));
#960=DIRECTION('ref_axis',(-0.866025403784439,0.5,0.));
#961=DIRECTION('',(-0.866025403784439,0.5,0.));
#962=DIRECTION('center_axis',(0.5,-0.866025403784439,0.));
#963=DIRECTION('ref_axis',(-0.866025403784439,-0.5,0.));
#964=DIRECTION('',(-0.866025403784439,-0.5,2.38445523128275E-16));
#965=DIRECTION('',(0.,0.,-1.));
#966=DIRECTION('',(0.,0.,-1.));
#967=DIRECTION('center_axis',(1.,1.80277756355403E-16,0.));
#968=DIRECTION('ref_axis',(1.80277756355403E-16,-1.,0.));
#969=DIRECTION('',(1.80277756355403E-16,-1.,-4.96364468463739E-32));
#970=DIRECTION('',(0.,0.,-1.));
#971=DIRECTION('center_axis',(0.5,0.866025403784439,0.));
#972=DIRECTION('ref_axis',(0.866025403784439,-0.5,0.));
#973=DIRECTION('',(0.866025403784439,-0.5,-2.38445523128275E-16));
#974=DIRECTION('',(0.,0.,-1.));
#975=DIRECTION('center_axis',(-0.5,0.866025403784439,0.));
#976=DIRECTION('ref_axis',(0.866025403784439,0.5,0.));
#977=DIRECTION('',(0.866025403784439,0.5,-2.38445523128275E-16));
#978=DIRECTION('',(0.,0.,-1.));
#979=DIRECTION('center_axis',(-1.,3.60555512710806E-16,0.));
#980=DIRECTION('ref_axis',(3.60555512710806E-16,1.,0.));
#981=DIRECTION('',(3.60555512710806E-16,1.,-9.92728936927477E-32));
#982=DIRECTION('',(0.,0.,-1.));
#983=DIRECTION('center_axis',(-0.5,-0.866025403784439,0.));
#984=DIRECTION('ref_axis',(-0.866025403784439,0.5,0.));
#985=DIRECTION('',(-0.866025403784439,0.5,2.38445523128275E-16));
#986=DIRECTION('center_axis',(-2.75333173930341E-16,0.,-1.));
#987=DIRECTION('ref_axis',(-1.,0.,2.75333173930341E-16));
#988=DIRECTION('center_axis',(2.75333173930341E-16,0.,1.));
#989=DIRECTION('ref_axis',(1.,0.,-2.75333173930341E-16));
#990=DIRECTION('center_axis',(-2.75333173930341E-16,0.,-1.));
#991=DIRECTION('ref_axis',(1.,0.,-2.75333173930341E-16));
#992=DIRECTION('center_axis',(6.12323399573676E-17,0.,1.));
#993=DIRECTION('ref_axis',(1.,0.,0.));
#994=DIRECTION('center_axis',(1.22464679914735E-16,-1.,0.));
#995=DIRECTION('ref_axis',(-1.,-1.22464679914735E-16,0.));
#996=DIRECTION('center_axis',(0.,0.,1.));
#997=DIRECTION('ref_axis',(1.,0.,0.));
#998=DIRECTION('center_axis',(0.,0.,1.));
#999=DIRECTION('ref_axis',(1.,0.,0.));
#1000=DIRECTION('',(0.707106781186548,8.65956056235493E-17,-0.707106781186548));
#1001=DIRECTION('center_axis',(0.,0.,-1.));
#1002=DIRECTION('ref_axis',(1.,0.,0.));
#1003=DIRECTION('center_axis',(0.,0.,1.));
#1004=DIRECTION('ref_axis',(1.,0.,0.));
#1005=DIRECTION('center_axis',(0.,0.,1.));
#1006=DIRECTION('ref_axis',(1.,0.,0.));
#1007=DIRECTION('',(0.,0.,1.));
#1008=DIRECTION('center_axis',(0.,0.,1.));
#1009=DIRECTION('ref_axis',(1.,0.,0.));
#1010=DIRECTION('center_axis',(0.,0.,1.));
#1011=DIRECTION('ref_axis',(1.,0.,0.));
#1012=DIRECTION('center_axis',(1.,0.,0.));
#1013=DIRECTION('ref_axis',(0.,1.,0.));
#1014=DIRECTION('',(0.,1.,0.));
#1015=DIRECTION('',(0.,0.,1.));
#1016=DIRECTION('',(0.,1.,0.));
#1017=DIRECTION('',(0.,0.,1.));
#1018=DIRECTION('center_axis',(0.,-1.,0.));
#1019=DIRECTION('ref_axis',(1.,0.,0.));
#1020=DIRECTION('',(1.,0.,0.));
#1021=DIRECTION('',(0.,0.,1.));
#1022=DIRECTION('',(1.,0.,0.));
#1023=DIRECTION('center_axis',(-1.,0.,0.));
#1024=DIRECTION('ref_axis',(0.,-1.,0.));
#1025=DIRECTION('',(0.,-1.,0.));
#1026=DIRECTION('',(0.,0.,1.));
#1027=DIRECTION('',(0.,-1.,0.));
#1028=DIRECTION('center_axis',(0.,1.,0.));
#1029=DIRECTION('ref_axis',(-1.,0.,0.));
#1030=DIRECTION('',(-1.,0.,0.));
#1031=DIRECTION('',(-1.,0.,0.));
#1032=DIRECTION('center_axis',(0.,0.,1.));
#1033=DIRECTION('ref_axis',(1.,0.,0.));
#1034=DIRECTION('center_axis',(0.,0.,1.));
#1035=DIRECTION('ref_axis',(1.,0.,0.));
#1036=DIRECTION('',(0.,0.,-1.));
#1037=DIRECTION('center_axis',(0.,0.,-1.));
#1038=DIRECTION('ref_axis',(1.,0.,0.));
#1039=DIRECTION('center_axis',(0.,0.,1.));
#1040=DIRECTION('ref_axis',(1.,0.,0.));
#1041=DIRECTION('center_axis',(0.,0.,-1.));
#1042=DIRECTION('ref_axis',(1.,0.,0.));
#1043=DIRECTION('',(0.,0.,-1.));
#1044=DIRECTION('center_axis',(0.,0.,-1.));
#1045=DIRECTION('ref_axis',(1.,0.,0.));
#1046=DIRECTION('center_axis',(0.,0.,1.));
#1047=DIRECTION('ref_axis',(1.,0.,0.));
#1048=DIRECTION('center_axis',(0.,0.,-1.));
#1049=DIRECTION('ref_axis',(1.,0.,0.));
#1050=DIRECTION('',(0.,0.,-1.));
#1051=DIRECTION('center_axis',(0.,0.,-1.));
#1052=DIRECTION('ref_axis',(1.,0.,0.));
#1053=DIRECTION('center_axis',(0.,0.,1.));
#1054=DIRECTION('ref_axis',(1.,0.,0.));
#1055=DIRECTION('center_axis',(0.,0.,1.));
#1056=DIRECTION('ref_axis',(1.,0.,0.));
#1057=DIRECTION('',(0.,0.,1.));
#1058=DIRECTION('center_axis',(0.,0.,1.));
#1059=DIRECTION('ref_axis',(1.,0.,0.));
#1060=DIRECTION('',(0.,0.,1.));
#1061=DIRECTION('center_axis',(0.,-1.,0.));
#1062=DIRECTION('ref_axis',(1.,0.,0.));
#1063=DIRECTION('',(-1.,0.,0.));
#1064=DIRECTION('',(1.,0.,0.));
#1065=DIRECTION('',(0.,0.,1.));
#1066=DIRECTION('center_axis',(1.,6.93889390390723E-17,0.));
#1067=DIRECTION('ref_axis',(-6.93889390390723E-17,1.,0.));
#1068=DIRECTION('',(6.93889390390723E-17,-1.,0.));
#1069=DIRECTION('',(-6.93889390390723E-17,1.,0.));
#1070=DIRECTION('',(0.,0.,1.));
#1071=DIRECTION('center_axis',(6.93889390390723E-17,-1.,0.));
#1072=DIRECTION('ref_axis',(1.,6.93889390390723E-17,0.));
#1073=DIRECTION('',(-1.,-6.93889390390723E-17,0.));
#1074=DIRECTION('',(1.,6.93889390390723E-17,0.));
#1075=DIRECTION('',(0.,0.,1.));
#1076=DIRECTION('center_axis',(-1.,0.,0.));
#1077=DIRECTION('ref_axis',(0.,-1.,0.));
#1078=DIRECTION('',(0.,1.,0.));
#1079=DIRECTION('',(0.,-1.,0.));
#1080=DIRECTION('',(0.,0.,1.));
#1081=DIRECTION('center_axis',(0.,-1.,0.));
#1082=DIRECTION('ref_axis',(1.,0.,0.));
#1083=DIRECTION('',(1.,0.,0.));
#1084=DIRECTION('',(1.,0.,0.));
#1085=DIRECTION('',(0.,0.,1.));
#1086=DIRECTION('center_axis',(0.,0.,1.));
#1087=DIRECTION('ref_axis',(-1.,1.22464679914735E-16,0.));
#1088=DIRECTION('center_axis',(0.,0.,1.));
#1089=DIRECTION('ref_axis',(1.,0.,0.));
#1090=DIRECTION('center_axis',(0.,0.,1.));
#1091=DIRECTION('ref_axis',(1.,0.,0.));
#1092=DIRECTION('',(0.,0.,1.));
#1093=DIRECTION('center_axis',(0.,1.,0.));
#1094=DIRECTION('ref_axis',(-1.,0.,0.));
#1095=DIRECTION('',(1.,0.,0.));
#1096=DIRECTION('',(-1.,0.,0.));
#1097=DIRECTION('',(0.,0.,1.));
#1098=DIRECTION('center_axis',(-1.,0.,0.));
#1099=DIRECTION('ref_axis',(0.,-1.,0.));
#1100=DIRECTION('',(0.,1.,0.));
#1101=DIRECTION('',(0.,-1.,0.));
#1102=DIRECTION('',(0.,0.,1.));
#1103=DIRECTION('center_axis',(0.,1.,0.));
#1104=DIRECTION('ref_axis',(-1.,0.,0.));
#1105=DIRECTION('',(1.,0.,0.));
#1106=DIRECTION('',(-1.,0.,0.));
#1107=DIRECTION('',(0.,0.,1.));
#1108=DIRECTION('center_axis',(1.,6.93889390390723E-17,0.));
#1109=DIRECTION('ref_axis',(-6.93889390390723E-17,1.,0.));
#1110=DIRECTION('',(6.93889390390723E-17,-1.,0.));
#1111=DIRECTION('',(-6.93889390390723E-17,1.,0.));
#1112=DIRECTION('',(0.,0.,1.));
#1113=DIRECTION('center_axis',(0.,1.,0.));
#1114=DIRECTION('ref_axis',(-1.,0.,0.));
#1115=DIRECTION('',(-1.,0.,0.));
#1116=DIRECTION('',(-1.,0.,0.));
#1117=DIRECTION('center_axis',(0.,0.,1.));
#1118=DIRECTION('ref_axis',(1.,0.,0.));
#1119=DIRECTION('center_axis',(0.,0.,1.));
#1120=DIRECTION('ref_axis',(1.,0.,0.));
#1121=DIRECTION('center_axis',(0.,0.,1.));
#1122=DIRECTION('ref_axis',(1.,0.,0.));
#1123=DIRECTION('center_axis',(0.,0.,1.));
#1124=DIRECTION('ref_axis',(1.,0.,0.));
#1125=DIRECTION('',(0.919135339255433,1.12561615120238E-16,-0.393941909590488));
#1126=DIRECTION('center_axis',(0.,0.,1.));
#1127=DIRECTION('ref_axis',(1.,0.,0.));
#1128=DIRECTION('center_axis',(6.12323399573676E-17,0.,1.));
#1129=DIRECTION('ref_axis',(1.,0.,0.));
#1130=DIRECTION('center_axis',(1.22464679914735E-16,-1.,0.));
#1131=DIRECTION('ref_axis',(-1.,-1.22464679914735E-16,0.));
#1132=DIRECTION('center_axis',(0.,0.,-1.));
#1133=DIRECTION('ref_axis',(-1.,0.,0.));
#1134=DIRECTION('center_axis',(0.,0.,1.));
#1135=DIRECTION('ref_axis',(1.,0.,0.));
#1136=DIRECTION('center_axis',(0.,0.,1.));
#1137=DIRECTION('ref_axis',(1.,0.,0.));
#1138=DIRECTION('center_axis',(0.,0.,1.));
#1139=DIRECTION('ref_axis',(1.,0.,0.));
#1140=DIRECTION('',(0.,0.,-1.));
#1141=DIRECTION('center_axis',(0.,0.,-1.));
#1142=DIRECTION('ref_axis',(1.,0.,0.));
#1143=DIRECTION('center_axis',(0.,0.,1.));
#1144=DIRECTION('ref_axis',(1.,0.,0.));
#1145=DIRECTION('',(-0.608761429008724,-7.45517735479902E-17,-0.793353340291233));
#1146=DIRECTION('center_axis',(0.,0.,1.));
#1147=DIRECTION('ref_axis',(1.,0.,0.));
#1148=DIRECTION('',(0.,0.,-1.));
#1149=DIRECTION('',(1.,0.,0.));
#1150=DIRECTION('',(0.,0.,-1.));
#1151=DIRECTION('',(1.,0.,0.));
#1152=CARTESIAN_POINT('',(0.,0.,0.));
#1153=CARTESIAN_POINT('',(0.,0.,0.));
#1154=CARTESIAN_POINT('Origin',(-1.48933904812158E-15,0.,-5.87731));
#1155=CARTESIAN_POINT('',(0.966749999999999,1.1839272930757E-16,-5.80385688672847));
#1156=CARTESIAN_POINT('Origin',(-1.46911496930947E-15,0.,-5.80385688672847));
#1157=CARTESIAN_POINT('',(0.754619999999997,-9.24142967572573E-17,-6.));
#1158=CARTESIAN_POINT('',(0.887309999999998,-1.08664135135144E-16,-5.87731));
#1159=CARTESIAN_POINT('Origin',(-1.5231196752311E-15,0.,-6.));
#1160=CARTESIAN_POINT('Origin',(7.38127335648238E-17,0.,-0.200000000000217));
#1161=CARTESIAN_POINT('',(1.16675,-1.42885665290517E-16,-2.17231068416823E-13));
#1162=CARTESIAN_POINT('Origin',(1.28879368350892E-16,0.,-2.1690982343614E-13));
#1163=CARTESIAN_POINT('',(0.96675,1.1839272930757E-16,-0.200000000000217));
#1164=CARTESIAN_POINT('Origin',(1.16675,-1.42885665290517E-16,-0.200000000000217));
#1165=CARTESIAN_POINT('Origin',(7.38127335648238E-17,0.,-0.200000000000217));
#1166=CARTESIAN_POINT('Origin',(-0.999999999999998,0.,-2.16638413575167E-13));
#1167=CARTESIAN_POINT('',(-1.9,0.,-4.11615186379777E-13));
#1168=CARTESIAN_POINT('Origin',(1.28879368350838E-16,0.,-4.12138319410244E-13));
#1169=CARTESIAN_POINT('Origin',(-6.97120153440102E-16,0.,-3.00000000000011));
#1170=CARTESIAN_POINT('',(0.966749999999999,-1.1839272930757E-16,-3.00000000000011));
#1171=CARTESIAN_POINT('Origin',(0.,-0.769800339674492,0.4066667));
#1172=CARTESIAN_POINT('',(0.,-0.769800339674492,0.4066667));
#1173=CARTESIAN_POINT('',(-6.93889390390723E-17,0.,0.348340925774195));
#1174=CARTESIAN_POINT('',(-6.93889390390723E-17,-0.578448746784736,0.392168486334161));
#1175=CARTESIAN_POINT('',(0.66666665,-0.384900169837246,0.4066667));
#1176=CARTESIAN_POINT('',(4.9473622577211E-17,-0.769800339674492,0.4066667));
#1177=CARTESIAN_POINT('',(0.500951309502853,-0.289224373392368,0.392168486334161));
#1178=CARTESIAN_POINT('Origin',(0.66666665,-0.384900169837246,0.4066667));
#1179=CARTESIAN_POINT('',(0.66666665,0.384900169837246,0.4066667));
#1180=CARTESIAN_POINT('',(0.66666665,-0.384900169837246,0.4066667));
#1181=CARTESIAN_POINT('',(0.500951309502853,0.289224373392368,0.392168486334161));
#1182=CARTESIAN_POINT('Origin',(0.66666665,0.384900169837246,0.4066667));
#1183=CARTESIAN_POINT('',(0.,0.769800339674492,0.4066667));
#1184=CARTESIAN_POINT('',(0.66666665,0.384900169837246,0.4066667));
#1185=CARTESIAN_POINT('',(6.93889390390723E-17,0.578448746784736,0.392168486334161));
#1186=CARTESIAN_POINT('Origin',(0.,0.769800339674492,0.4066667));
#1187=CARTESIAN_POINT('',(-0.66666665,0.384900169837246,0.4066667));
#1188=CARTESIAN_POINT('',(-6.93889390390723E-17,0.769800339674492,0.4066667));
#1189=CARTESIAN_POINT('',(-0.500951309502853,0.289224373392368,0.392168486334161));
#1190=CARTESIAN_POINT('Origin',(-0.66666665,0.384900169837246,0.4066667));
#1191=CARTESIAN_POINT('',(-0.66666665,-0.384900169837246,0.4066667));
#1192=CARTESIAN_POINT('',(-0.66666665,0.384900169837246,0.4066667));
#1193=CARTESIAN_POINT('',(-0.500951309502853,-0.289224373392368,0.392168486334161));
#1194=CARTESIAN_POINT('Origin',(-0.66666665,-0.384900169837246,0.4066667));
#1195=CARTESIAN_POINT('',(-0.66666665,-0.384900169837246,0.4066667));
#1196=CARTESIAN_POINT('Origin',(0.66666665,-0.384900169837246,1.1));
#1197=CARTESIAN_POINT('',(0.66666665,-0.384900169837246,1.1));
#1198=CARTESIAN_POINT('',(0.,-0.769800339674492,1.1));
#1199=CARTESIAN_POINT('',(0.174999995625,-0.668764045092215,1.09999999999968));
#1200=CARTESIAN_POINT('',(0.66666665,-0.384900169837246,1.1));
#1201=CARTESIAN_POINT('',(0.,-0.769800339674492,1.1));
#1202=CARTESIAN_POINT('Origin',(0.66666665,0.384900169837246,1.1));
#1203=CARTESIAN_POINT('',(0.66666665,0.384900169837246,1.1));
#1204=CARTESIAN_POINT('',(0.66666665,0.192450084918623,1.09999999999968));
#1205=CARTESIAN_POINT('',(0.66666665,0.384900169837246,1.1));
#1206=CARTESIAN_POINT('Origin',(0.,0.769800339674492,1.1));
#1207=CARTESIAN_POINT('',(-6.93889390390723E-17,0.769800339674492,1.1));
#1208=CARTESIAN_POINT('',(-0.158333329375,0.861214130010838,1.09999999999968));
#1209=CARTESIAN_POINT('',(-6.93889390390723E-17,0.769800339674492,1.1));
#1210=CARTESIAN_POINT('Origin',(-0.66666665,0.384900169837246,1.1));
#1211=CARTESIAN_POINT('',(-0.66666665,0.384900169837246,1.1));
#1212=CARTESIAN_POINT('',(-0.824999979375,0.2934863795009,1.09999999999968));
#1213=CARTESIAN_POINT('',(-0.66666665,0.384900169837246,1.1));
#1214=CARTESIAN_POINT('Origin',(-0.66666665,-0.384900169837246,1.1));
#1215=CARTESIAN_POINT('',(-0.66666665,-0.384900169837246,1.1));
#1216=CARTESIAN_POINT('',(-0.66666665,-0.192450084918623,1.09999999999968));
#1217=CARTESIAN_POINT('',(-0.66666665,-0.384900169837246,1.1));
#1218=CARTESIAN_POINT('Origin',(0.,-0.769800339674492,1.1));
#1219=CARTESIAN_POINT('',(-0.491666654375,-0.485936464419523,1.09999999999968));
#1220=CARTESIAN_POINT('Origin',(-1.52655665885959E-15,0.,-6.));
#1221=CARTESIAN_POINT('Origin',(-0.866666645,0.,1.09999999999968));
#1222=CARTESIAN_POINT('',(-0.866666645,0.,1.09999999999968));
#1223=CARTESIAN_POINT('Origin',(4.31745859674238E-16,0.,1.09999999999968));
#1224=CARTESIAN_POINT('Origin',(2.77555756156289E-16,0.,-0.749494966565923));
#1225=CARTESIAN_POINT('Origin',(2.77555756156289E-16,0.,-0.749494966565923));
#1226=CARTESIAN_POINT('Origin',(0.,0.,10.05));
#1227=CARTESIAN_POINT('',(-6.3,-7.71527483462833E-16,10.2));
#1228=CARTESIAN_POINT('Origin',(0.,0.,10.2));
#1229=CARTESIAN_POINT('',(-6.,7.34788079488412E-16,9.9));
#1230=CARTESIAN_POINT('',(-6.15,-7.53157781475622E-16,10.05));
#1231=CARTESIAN_POINT('Origin',(0.,0.,9.9));
#1232=CARTESIAN_POINT('Origin',(0.,0.,0.));
#1233=CARTESIAN_POINT('',(-6.,-7.34788079488412E-16,2.2));
#1234=CARTESIAN_POINT('Origin',(0.,0.,2.2));
#1235=CARTESIAN_POINT('',(-6.,-7.34788079488412E-16,0.));
#1236=CARTESIAN_POINT('Origin',(0.,0.,10.2));
#1237=CARTESIAN_POINT('',(-7.75,9.49101269339199E-16,10.2));
#1238=CARTESIAN_POINT('Origin',(0.,0.,10.2));
#1239=CARTESIAN_POINT('Origin',(7.25,-7.25,0.));
#1240=CARTESIAN_POINT('',(7.25,-7.25,0.));
#1241=CARTESIAN_POINT('',(7.25,7.25,0.));
#1242=CARTESIAN_POINT('',(7.25,-3.625,0.));
#1243=CARTESIAN_POINT('',(7.25,-7.25,2.2));
#1244=CARTESIAN_POINT('',(7.25,-7.25,0.));
#1245=CARTESIAN_POINT('',(7.25,7.25,2.2));
#1246=CARTESIAN_POINT('',(7.25,7.25,2.2));
#1247=CARTESIAN_POINT('',(7.25,7.25,0.));
#1248=CARTESIAN_POINT('Origin',(-7.25,-7.25,0.));
#1249=CARTESIAN_POINT('',(-7.25,-7.25,0.));
#1250=CARTESIAN_POINT('',(-3.625,-7.25,0.));
#1251=CARTESIAN_POINT('',(-7.25,-7.25,2.2));
#1252=CARTESIAN_POINT('',(-7.25,-7.25,0.));
#1253=CARTESIAN_POINT('',(7.25,-7.25,2.2));
#1254=CARTESIAN_POINT('Origin',(-7.25,7.25,0.));
#1255=CARTESIAN_POINT('',(-7.25,7.25,0.));
#1256=CARTESIAN_POINT('',(-7.25,3.625,0.));
#1257=CARTESIAN_POINT('',(-7.25,7.25,2.2));
#1258=CARTESIAN_POINT('',(-7.25,7.25,0.));
#1259=CARTESIAN_POINT('',(-7.25,-7.25,2.2));
#1260=CARTESIAN_POINT('Origin',(7.25,7.25,0.));
#1261=CARTESIAN_POINT('',(3.625,7.25,0.));
#1262=CARTESIAN_POINT('',(-7.25,7.25,2.2));
#1263=CARTESIAN_POINT('Origin',(0.,0.,2.2));
#1264=CARTESIAN_POINT('Origin',(0.,0.,3.2));
#1265=CARTESIAN_POINT('',(-7.75,9.49101269339199E-16,3.2));
#1266=CARTESIAN_POINT('',(-7.75,-9.49101269339199E-16,3.2));
#1267=CARTESIAN_POINT('Origin',(0.,0.,3.2));
#1268=CARTESIAN_POINT('Origin',(10.,0.,0.));
#1269=CARTESIAN_POINT('',(9.,-1.22464679914735E-16,3.2));
#1270=CARTESIAN_POINT('Origin',(10.,0.,3.2));
#1271=CARTESIAN_POINT('',(9.,-1.22464679914735E-16,0.));
#1272=CARTESIAN_POINT('',(9.,-1.22464679914735E-16,0.));
#1273=CARTESIAN_POINT('Origin',(10.,0.,0.));
#1274=CARTESIAN_POINT('Origin',(-10.,0.,0.));
#1275=CARTESIAN_POINT('',(-11.,-1.22464679914735E-16,3.2));
#1276=CARTESIAN_POINT('Origin',(-10.,0.,3.2));
#1277=CARTESIAN_POINT('',(-11.,-1.22464679914735E-16,0.));
#1278=CARTESIAN_POINT('',(-11.,-1.22464679914735E-16,0.));
#1279=CARTESIAN_POINT('Origin',(-10.,0.,0.));
#1280=CARTESIAN_POINT('Origin',(10.,0.,0.));
#1281=CARTESIAN_POINT('',(10.,-2.,0.));
#1282=CARTESIAN_POINT('',(10.,2.,0.));
#1283=CARTESIAN_POINT('Origin',(10.,0.,0.));
#1284=CARTESIAN_POINT('',(10.,2.,3.2));
#1285=CARTESIAN_POINT('',(10.,2.,0.));
#1286=CARTESIAN_POINT('',(10.,-2.,3.2));
#1287=CARTESIAN_POINT('Origin',(10.,0.,3.2));
#1288=CARTESIAN_POINT('',(10.,-2.,0.));
#1289=CARTESIAN_POINT('Origin',(8.,-2.,0.));
#1290=CARTESIAN_POINT('',(8.,-2.,0.));
#1291=CARTESIAN_POINT('',(10.,-2.,0.));
#1292=CARTESIAN_POINT('',(8.,-2.,3.2));
#1293=CARTESIAN_POINT('',(10.,-2.,3.2));
#1294=CARTESIAN_POINT('',(8.,-2.,0.));
#1295=CARTESIAN_POINT('Origin',(8.,-8.,0.));
#1296=CARTESIAN_POINT('',(8.,-8.,0.));
#1297=CARTESIAN_POINT('',(8.,8.,0.));
#1298=CARTESIAN_POINT('',(8.,-8.,3.2));
#1299=CARTESIAN_POINT('',(8.,8.,3.2));
#1300=CARTESIAN_POINT('',(8.,-8.,0.));
#1301=CARTESIAN_POINT('Origin',(-8.,-8.,0.));
#1302=CARTESIAN_POINT('',(-8.,-8.,0.));
#1303=CARTESIAN_POINT('',(8.,-8.,0.));
#1304=CARTESIAN_POINT('',(-8.,-8.,3.2));
#1305=CARTESIAN_POINT('',(8.,-8.,3.2));
#1306=CARTESIAN_POINT('',(-8.,-8.,0.));
#1307=CARTESIAN_POINT('Origin',(-8.,-2.,0.));
#1308=CARTESIAN_POINT('',(-8.,-2.,0.));
#1309=CARTESIAN_POINT('',(-8.,-8.,0.));
#1310=CARTESIAN_POINT('',(-8.,-2.,3.2));
#1311=CARTESIAN_POINT('',(-8.,-8.,3.2));
#1312=CARTESIAN_POINT('',(-8.,-2.,0.));
#1313=CARTESIAN_POINT('Origin',(-10.,-2.,0.));
#1314=CARTESIAN_POINT('',(-10.,-2.,0.));
#1315=CARTESIAN_POINT('',(-10.,-2.,0.));
#1316=CARTESIAN_POINT('',(-10.,-2.,3.2));
#1317=CARTESIAN_POINT('',(-10.,-2.,3.2));
#1318=CARTESIAN_POINT('',(-10.,-2.,0.));
#1319=CARTESIAN_POINT('Origin',(-10.,0.,0.));
#1320=CARTESIAN_POINT('',(-10.,2.,0.));
#1321=CARTESIAN_POINT('Origin',(-10.,0.,0.));
#1322=CARTESIAN_POINT('',(-10.,2.,3.2));
#1323=CARTESIAN_POINT('Origin',(-10.,0.,3.2));
#1324=CARTESIAN_POINT('',(-10.,2.,0.));
#1325=CARTESIAN_POINT('Origin',(-8.,2.,0.));
#1326=CARTESIAN_POINT('',(-8.,2.,0.));
#1327=CARTESIAN_POINT('',(-10.,2.,0.));
#1328=CARTESIAN_POINT('',(-8.,2.,3.2));
#1329=CARTESIAN_POINT('',(-10.,2.,3.2));
#1330=CARTESIAN_POINT('',(-8.,2.,0.));
#1331=CARTESIAN_POINT('Origin',(-8.,8.,0.));
#1332=CARTESIAN_POINT('',(-8.,8.,0.));
#1333=CARTESIAN_POINT('',(-8.,-8.,0.));
#1334=CARTESIAN_POINT('',(-8.,8.,3.2));
#1335=CARTESIAN_POINT('',(-8.,-8.,3.2));
#1336=CARTESIAN_POINT('',(-8.,8.,0.));
#1337=CARTESIAN_POINT('Origin',(8.,8.,0.));
#1338=CARTESIAN_POINT('',(8.,8.,0.));
#1339=CARTESIAN_POINT('',(-8.,8.,0.));
#1340=CARTESIAN_POINT('',(8.,8.,3.2));
#1341=CARTESIAN_POINT('',(-8.,8.,3.2));
#1342=CARTESIAN_POINT('',(8.,8.,0.));
#1343=CARTESIAN_POINT('Origin',(8.,2.,0.));
#1344=CARTESIAN_POINT('',(8.,2.,0.));
#1345=CARTESIAN_POINT('',(8.,8.,0.));
#1346=CARTESIAN_POINT('',(8.,2.,3.2));
#1347=CARTESIAN_POINT('',(8.,8.,3.2));
#1348=CARTESIAN_POINT('',(8.,2.,0.));
#1349=CARTESIAN_POINT('Origin',(10.,2.,0.));
#1350=CARTESIAN_POINT('',(10.,2.,0.));
#1351=CARTESIAN_POINT('',(10.,2.,3.2));
#1352=CARTESIAN_POINT('Origin',(0.,1.11022302462516E-15,3.2));
#1353=CARTESIAN_POINT('Origin',(0.,1.11022302462516E-15,0.));
#1354=CARTESIAN_POINT('Origin',(0.,0.,13.7201196567877));
#1355=CARTESIAN_POINT('',(-1.5,-1.83697019872103E-16,13.7899999999999));
#1356=CARTESIAN_POINT('Origin',(0.,0.,13.7899999999999));
#1357=CARTESIAN_POINT('',(-1.17391388729135,-1.43762988454598E-16,13.6502393135754));
#1358=CARTESIAN_POINT('',(-1.33695694364567,-1.6373000416335E-16,13.7201196567877));
#1359=CARTESIAN_POINT('Origin',(0.,0.,13.6502393135754));
#1360=CARTESIAN_POINT('Origin',(0.,0.,8.78999999999993));
#1361=CARTESIAN_POINT('',(-3.06161699786838E-16,-3.74939945665464E-32,13.7899999999999));
#1362=CARTESIAN_POINT('Origin',(0.,0.,8.78999999999993));
#1363=CARTESIAN_POINT('Origin',(6.,0.,3.12));
#1364=CARTESIAN_POINT('',(-6.,-7.34788079488412E-16,3.12));
#1365=CARTESIAN_POINT('Origin',(0.,0.,3.12));
#1366=CARTESIAN_POINT('Origin',(0.,0.,6.275));
#1367=CARTESIAN_POINT('',(-6.,-7.34788079488412E-16,9.43));
#1368=CARTESIAN_POINT('Origin',(0.,0.,9.43));
#1369=CARTESIAN_POINT('',(-6.,-7.34788079488412E-16,6.275));
#1370=CARTESIAN_POINT('Origin',(0.,0.,11.61));
#1371=CARTESIAN_POINT('',(-2.65445433241173,-3.25076900167085E-16,13.79));
#1372=CARTESIAN_POINT('Origin',(0.,0.,13.79));
#1373=CARTESIAN_POINT('',(-4.32722716620586,-5.29932489827748E-16,11.61));
#1374=CARTESIAN_POINT('Origin',(1.5,0.,13.7899999999999));
#1375=CARTESIAN_POINT('',(-10.,0.,-1.6));
#1376=CARTESIAN_POINT('',(10.,0.,-1.6));
#1377=UNCERTAINTY_MEASURE_WITH_UNIT(LENGTH_MEASURE(0.01),#1383,
'DISTANCE_ACCURACY_VALUE',
'Maximum model space distance between geometric entities at asserted c
onnectivities');
#1378=UNCERTAINTY_MEASURE_WITH_UNIT(LENGTH_MEASURE(0.01),#1383,
'DISTANCE_ACCURACY_VALUE',
'Maximum model space distance between geometric entities at asserted c
onnectivities');
#1379=UNCERTAINTY_MEASURE_WITH_UNIT(LENGTH_MEASURE(0.01),#1383,
'DISTANCE_ACCURACY_VALUE',
'Maximum model space distance between geometric entities at asserted c
onnectivities');
#1380=(
GEOMETRIC_REPRESENTATION_CONTEXT(3)
GLOBAL_UNCERTAINTY_ASSIGNED_CONTEXT((#1377))
GLOBAL_UNIT_ASSIGNED_CONTEXT((#1383,#1385,#1386))
REPRESENTATION_CONTEXT('','3D')
);
#1381=(
GEOMETRIC_REPRESENTATION_CONTEXT(3)
GLOBAL_UNCERTAINTY_ASSIGNED_CONTEXT((#1378))
GLOBAL_UNIT_ASSIGNED_CONTEXT((#1383,#1385,#1386))
REPRESENTATION_CONTEXT('','3D')
);
#1382=(
GEOMETRIC_REPRESENTATION_CONTEXT(3)
GLOBAL_UNCERTAINTY_ASSIGNED_CONTEXT((#1379))
GLOBAL_UNIT_ASSIGNED_CONTEXT((#1383,#1385,#1386))
REPRESENTATION_CONTEXT('','3D')
);
#1383=(
LENGTH_UNIT()
NAMED_UNIT(*)
SI_UNIT(.MILLI.,.METRE.)
);
#1384=(
LENGTH_UNIT()
NAMED_UNIT(*)
SI_UNIT($,.METRE.)
);
#1385=(
NAMED_UNIT(*)
PLANE_ANGLE_UNIT()
SI_UNIT($,.RADIAN.)
);
#1386=(
NAMED_UNIT(*)
SI_UNIT($,.STERADIAN.)
SOLID_ANGLE_UNIT()
);
#1387=SHAPE_DEFINITION_REPRESENTATION(#1389,#1393);
#1388=SHAPE_DEFINITION_REPRESENTATION(#1390,#1394);
#1389=PRODUCT_DEFINITION_SHAPE('',$,#1396);
#1390=PRODUCT_DEFINITION_SHAPE('',$,#1397);
#1391=PRODUCT_DEFINITION_SHAPE($,$,#17);
#1392=PRODUCT_DEFINITION_SHAPE($,$,#18);
#1393=SHAPE_REPRESENTATION('',(#831,#910,#911),#1380);
#1394=SHAPE_REPRESENTATION('',(#832),#1381);
#1395=PRODUCT_DEFINITION_CONTEXT('part definition',#1403,'design');
#1396=PRODUCT_DEFINITION('(Unsaved)','(Unsaved)',#1398,#1395);
#1397=PRODUCT_DEFINITION('DIN EN ISO 7380-1 - M2 x 6 Steel 4.6 Plain',
'Hexagon Socket Button Head Screw DIN EN ISO 7380-1 - M2 x 6 Steel 4.6
 Plain v1',#1399,#1395);
#1398=PRODUCT_DEFINITION_FORMATION('',$,#1405);
#1399=PRODUCT_DEFINITION_FORMATION('',$,#1406);
#1400=PRODUCT_RELATED_PRODUCT_CATEGORY('(Unsaved)','(Unsaved)',(#1405));
#1401=PRODUCT_RELATED_PRODUCT_CATEGORY(
'Hexagon Socket Button Head Screw DIN EN ISO 7380-1 - M2 x 6 Steel 4.6
 Plain v1',
'Hexagon Socket Button Head Screw DIN EN ISO 7380-1 - M2 x 6 Steel 4.6
 Plain v1',(#1406));
#1402=APPLICATION_PROTOCOL_DEFINITION('international standard',
'automotive_design',2009,#1403);
#1403=APPLICATION_CONTEXT(
'Core Data for Automotive Mechanical Design Process');
#1404=PRODUCT_CONTEXT('part definition',#1403,'mechanical');
#1405=PRODUCT('(Unsaved)','(Unsaved)',$,(#1404));
#1406=PRODUCT('DIN EN ISO 7380-1 - M2 x 6 Steel 4.6 Plain',
'Hexagon Socket Button Head Screw DIN EN ISO 7380-1 - M2 x 6 Steel 4.6
 Plain v1',
'Hexagon Socket Button Head Screw DIN EN ISO 7380-1 - M2 x 6',(#1404));
#1407=PRESENTATION_STYLE_ASSIGNMENT((#1410));
#1408=PRESENTATION_STYLE_ASSIGNMENT((#1411));
#1409=PRESENTATION_STYLE_ASSIGNMENT((#1412));
#1410=SURFACE_STYLE_USAGE(.BOTH.,#1413);
#1411=SURFACE_STYLE_USAGE(.BOTH.,#1414);
#1412=SURFACE_STYLE_USAGE(.BOTH.,#1415);
#1413=SURFACE_SIDE_STYLE('',(#1416));
#1414=SURFACE_SIDE_STYLE('',(#1417));
#1415=SURFACE_SIDE_STYLE('',(#1418));
#1416=SURFACE_STYLE_FILL_AREA(#1419);
#1417=SURFACE_STYLE_FILL_AREA(#1420);
#1418=SURFACE_STYLE_FILL_AREA(#1421);
#1419=FILL_AREA_STYLE('Steel - Satin',(#1422));
#1420=FILL_AREA_STYLE('Steel - Satin',(#1423));
#1421=FILL_AREA_STYLE('Glass - Medium Color (Blue)',(#1424));
#1422=FILL_AREA_STYLE_COLOUR('Steel - Satin',#1425);
#1423=FILL_AREA_STYLE_COLOUR('Steel - Satin',#1426);
#1424=FILL_AREA_STYLE_COLOUR('Glass - Medium Color (Blue)',#1427);
#1425=COLOUR_RGB('Steel - Satin',0.627450980392157,0.627450980392157,0.627450980392157);
#1426=COLOUR_RGB('Steel - Satin',0.282352941176471,0.282352941176471,0.282352941176471);
#1427=COLOUR_RGB('Glass - Medium Color (Blue)',0.423529411764706,0.768627450980392,
0.854901960784314);
ENDSEC;
END-ISO-10303-21;
